Coordinates
version=1
nRows=16
nColumns=36
inDegrees=yes

Units are S.I. units (second, meters, Newtons, ...)
If the header above contains a line with 'inDegrees', this indicates whether rotational values are in degrees (yes) or radians (no).

endheader
time	pelvis_tilt	pelvis_list	pelvis_rotation	pelvis_tx	pelvis_ty	pelvis_tz	hip_flexion_r	hip_adduction_r	hip_rotation_r	knee_angle_r	knee_angle_r_beta	ankle_angle_r	subtalar_angle_r	mtp_angle_r	hip_flexion_l	hip_adduction_l	hip_rotation_l	knee_angle_l	knee_angle_l_beta	ankle_angle_l	subtalar_angle_l	mtp_angle_l	lumbar_extension	lumbar_bending	lumbar_rotation	arm_flex_r	arm_add_r	arm_rot_r	elbow_flex_r	pro_sup_r	arm_flex_l	arm_add_l	arm_rot_l	elbow_flex_l	pro_sup_l
      0.49000000	     -6.26297882	     -4.74307425	      7.03239256	      0.04966372	      0.87322145	     -0.24922966	     33.72217575	      6.77156353	      0.60054598	     26.11403460	      0.45577588	     -3.05510944	    -15.78227433	     -5.91464108	     -6.15752857	     -5.84662389	     -2.27825743	     36.76227754	      0.64162278	     -4.52576455	      9.15350302	     -5.91464108	     -0.55641638	      5.94876504	     -5.56246615	     -8.31669661	    -15.91107156	      0.50884009	     37.75381354	    104.01474629	    -13.62593144	    -12.75620695	     -4.27500636	     35.69088037	     98.75947893
      0.50000000	     -6.17749326	     -5.00824529	      6.42222032	      0.06164030	      0.87485933	     -0.24782304	     32.84043788	      7.77323868	      1.61014030	     26.18821444	      0.45707057	     -3.12457528	    -17.02393592	     -5.97129450	     -4.63337841	     -6.55104057	     -2.85982473	     40.08509534	      0.69961689	     -7.68488764	      8.20054275	     -5.97129450	     -0.55666148	      6.58316759	     -4.90962366	     -8.19960786	    -15.96720403	      0.56119713	     38.24758786	    104.17964343	    -14.29237808	    -12.74657482	     -4.98103641	     36.37731440	     99.06645590
      0.51000000	     -6.08360230	     -5.29217054	      5.92285180	      0.07325037	      0.87668957	     -0.24662967	     31.80984963	      8.67401582	      2.32677537	     26.00220820	      0.45382415	     -2.83789054	    -18.02627612	     -6.05190983	     -2.95309890	     -7.31231757	     -3.31173512	     43.48853676	      0.75901815	    -10.23797618	      7.36865814	     -6.05190983	     -0.52508266	      7.23962121	     -4.35608275	     -7.98145804	    -16.04066305	      0.57047825	     38.52373445	    104.35516466	    -14.77364948	    -12.71830002	     -5.43177873	     36.80839700	     99.50124012
      0.52000000	     -5.99113373	     -5.53407617	      5.52920027	      0.08441539	      0.87861902	     -0.24535831	     30.74858995	      9.42259033	      2.78247661	     25.74625568	      0.44935693	     -2.07299005	    -18.32258635	     -6.06837294	     -1.14266498	     -8.07364994	     -3.58313024	     46.86980410	      0.81803240	    -11.95804264	      7.04512829	     -6.06837294	     -0.51658910	      7.77223511	     -3.81288990	     -7.76680637	    -16.03613588	      0.62165392	     38.74489839	    104.40261623	    -15.03540180	    -12.89248569	     -5.43769004	     37.05093863	     99.60613552
      0.53000000	     -6.00367915	     -5.61033565	      5.23671022	      0.09511809	      0.88049296	     -0.24424276	     29.79459328	      9.91738888	      3.24042436	     25.47888125	      0.44469037	     -1.59274147	    -18.87696781	     -6.11508203	      0.90575449	     -8.55382228	     -3.60405288	     50.16372830	      0.87552222	    -13.40404267	      5.80796503	     -6.11508203	     -0.43423698	      8.06909082	     -3.33774548	     -7.62740591	    -15.97335658	      0.56035606	     39.20762293	    104.51357008	    -15.25973057	    -13.14935616	     -5.36633813	     37.45753893	     99.86427181
      0.54000000	     -5.91596772	     -5.72288542	      5.11707034	      0.10553376	      0.88254145	     -0.24330920	     28.68671067	     10.34584064	      3.53868894	     25.08997792	      0.43790272	     -0.87011748	    -19.14107718	     -6.13061735	      2.95158927	     -9.05559690	     -3.35529013	     53.33381518	      0.93085068	    -13.72499554	      5.16647277	     -6.13061735	     -0.45888979	      8.39014174	     -2.94323266	     -7.36041271	    -15.89117019	      0.55626512	     39.36356132	    104.55332764	    -15.25517430	    -13.40327490	     -5.28619476	     37.68770917	     99.95835991
      0.55000000	     -5.94751395	     -5.75676720	      5.13176639	      0.11564237	      0.88430896	     -0.24257286	     27.74634613	     10.58399027	      3.72440702	     24.72178479	      0.43147654	     -0.24827531	    -19.38177192	     -6.14812719	      5.25746615	     -9.36846764	     -2.89449849	     56.42069462	      0.98472689	    -13.23202464	      4.17919450	     -6.14812719	     -0.34963991	      8.57117909	     -2.70390200	     -7.09573005	    -15.76597092	      0.54608315	     39.60985372	    104.60264417	    -15.24641968	    -13.72304220	     -5.09923894	     37.98831217	    100.07630009
      0.56000000	     -5.99894528	     -5.73495920	      5.28260015	      0.12551058	      0.88593756	     -0.24218333	     26.87506394	     10.65847571	      3.80186877	     24.41508202	      0.42612357	      0.26060863	    -19.55482341	     -6.16957778	      7.66855585	     -9.48573692	     -2.21906635	     59.33102172	      1.03552168	    -12.01390592	      3.10817735	     -6.16957778	     -0.24532171	      8.69993882	     -2.55517538	     -6.79982115	    -15.66857520	      0.52633168	     39.82513411	    104.65468817	    -15.18487913	    -14.04310268	     -4.83580761	     38.32078907	    100.21635436
      0.57000000	     -5.98948636	     -5.70929185	      5.52280512	      0.13521599	      0.88755308	     -0.24194654	     25.90581510	     10.70216686	      3.88274726	     23.99454766	      0.41878386	      0.74377300	    -19.64949511	     -6.18392432	     10.06336506	     -9.46811296	     -1.35440722	     61.98720360	      1.08188080	    -10.47534195	      2.06530984	     -6.18392432	     -0.23843480	      8.81368651	     -2.36360571	     -6.45261397	    -15.54621512	      0.56965685	     39.92732508	    104.68727448	    -14.97117680	    -14.32942507	     -4.67292570	     38.68138905	    100.31940633
      0.58000000	     -5.99191843	     -5.65769151	      5.80045027	      0.14479387	      0.88896838	     -0.24193363	     24.97422039	     10.68172808	      3.95636746	     23.60332612	      0.41195576	      1.10597485	    -19.68182019	     -6.19608693	     12.48966976	     -9.30068027	     -0.43855115	     64.40688976	      1.12411229	     -8.67038093	      0.99031842	     -6.19608693	     -0.24455147	      8.91146172	     -2.22472006	     -6.06368109	    -15.46511584	      0.64302798	     40.02142758	    104.71306707	    -14.76390378	    -14.59162092	     -4.55151937	     39.08267586	    100.41322482
      0.59000000	     -6.11359765	     -5.61873774	      6.02113016	      0.15432512	      0.89003010	     -0.24190584	     24.19931976	     10.64620950	      3.86652599	     23.19409451	      0.40481332	      1.37893913	    -19.71449071	     -6.21693585	     15.01928072	     -9.13060985	      0.27885956	     66.57771378	      1.16200031	     -6.45839417	     -0.03947123	     -6.21693585	     -0.11654020	      9.01030979	     -2.21725703	     -5.60162268	    -15.38938075	      0.81814524	     40.17544941	    104.74988605	    -14.76899514	    -14.80062837	     -4.46085989	     39.58122753	    100.53770029
      0.60000000	     -6.07970578	     -5.56239976	      6.24303489	      0.16379302	      0.89130065	     -0.24207320	     23.17115469	     10.63780784	      4.01172292	     22.65418227	      0.39539007	      1.63074779	    -19.67883318	     -6.22891888	     17.30680287	     -8.79221220	      1.12758543	     68.34459238	      1.19283816	     -4.79922489	     -1.02525878	     -6.22891888	     -0.19110264	      9.13248957	     -1.97648685	     -5.17309462	    -15.40344142	      0.98088968	     40.20311425	    104.76709691	    -14.54324302	    -14.93449487	     -4.53532084	     40.05289511	    100.60593045
      0.61000000	     -6.09674089	     -5.52218748	      6.33450623	      0.17326133	      0.89242041	     -0.24213659	     22.18814841	     10.67983968	      4.16869291	     22.07986205	      0.38536629	      1.85770637	    -19.66206582	     -6.24206282	     19.54546355	     -8.49649115	      1.72578775	     69.77984080	      1.21788797	     -3.08089387	     -2.06695898	     -6.24206282	     -0.21137291	      9.27371421	     -1.78881652	     -4.67958676	    -15.42868350	      1.19116244	     40.30765412	    104.78689529	    -14.48993797	    -14.98820501	     -4.69564047	     40.55577671	    100.66233987
      0.62000000	     -6.08646997	     -5.45657994	      6.30514739	      0.18268516	      0.89355069	     -0.24199447	     21.14478924	     10.75525494	      4.44345776	     21.45279867	      0.37442197	      1.92175948	    -19.89848472	     -6.30944214	     21.61837300	     -8.22586390	      2.13042809	     70.82864934	      1.23619314	     -1.45857105	     -2.74427156	     -6.30944214	     -0.31325153	      9.31674595	     -1.86152339	     -3.85397463	    -15.56380063	      2.21220968	     40.24035615	    104.80956233	    -14.89779244	    -14.82613521	     -6.04675425	     41.67317188	    100.70732700
      0.63000000	     -5.95045179	     -5.35701004	      6.14708051	      0.19204748	      0.89496210	     -0.24182409	     19.94351309	     10.86045625	      4.93000352	     20.85488417	      0.36398639	      2.20791266	    -19.82640024	     -6.33977050	     23.41004831	     -7.90622674	      2.39468549	     71.51443088	      1.24816228	     -0.33713961	     -3.85131605	     -6.33977050	     -0.54022519	      9.42194042	     -1.55405948	     -3.24073036	    -15.58072986	      2.50201882	     40.31286868	    104.78691642	    -14.84241956	    -14.71907230	     -6.42231910	     42.03222865	    100.71707333
      0.64000000	     -5.83901223	     -5.22560707	      5.89356889	      0.20141767	      0.89642738	     -0.24151238	     18.73662136	     10.91562907	      5.32911230	     20.18056917	      0.35221738	      2.52487674	    -19.72378954	     -6.35443572	     25.06957115	     -7.61406998	      2.48384221	     71.76794569	      1.25258695	      0.60914183	     -4.69752701	     -6.35443572	     -0.71631481	      9.46535050	     -1.11208289	     -2.73202283	    -15.59455459	      2.63611244	     40.44911193	    104.78270459	    -14.72257325	    -14.67487339	     -6.68483380	     42.35652905	    100.70445674
